<svg width="293" height="552" viewBox="0 0 293 552" fill="none" xmlns="http://www.w3.org/2000/svg">
<g style="mix-blend-mode:overlay">
<path d="M217 207L210 181.5C221.62 181.498 226.927 178.538 234.5 168.5C239.917 178.008 242.716 184.126 247 195C232.951 192.558 226.499 195.156 217 207Z" fill="#FF0000"/>
<path d="M217 207L210 181.5C221.62 181.498 226.927 178.538 234.5 168.5C239.917 178.008 242.716 184.126 247 195C232.951 192.558 226.499 195.156 217 207Z" stroke="#FF0000"/>
</g>
<g style="mix-blend-mode:overlay">
<path d="M75.5 206L82.5 181.5C71.1282 181.772 65.8716 178.611 58 168.5C52.5829 178.008 49.7842 182.626 45.5 193.5C59.3755 191.707 65.8345 194.778 75.5 206Z" fill="#FF0000"/>
<path d="M75.5 206L82.5 181.5C71.1282 181.772 65.8716 178.611 58 168.5C52.5829 178.008 49.7842 182.626 45.5 193.5C59.3755 191.707 65.8345 194.778 75.5 206Z" stroke="#FF0000"/>
</g>
<g style="mix-blend-mode:overlay">
<path d="M168 514.5C168.28 503.321 168.609 497.761 170.5 488.5C177.715 487.374 181.782 487.373 189 488.5L188.5 506C177.809 507.198 173.097 508.474 168 514.5Z" fill="#FF0000"/>
<path d="M168 514.5C168.28 503.321 168.609 497.761 170.5 488.5C177.715 487.374 181.782 487.373 189 488.5L188.5 506C177.809 507.198 173.097 508.474 168 514.5Z" stroke="#FF0000"/>
</g>
<g style="mix-blend-mode:overlay">
<path d="M124.5 514.5C124.22 503.321 124.391 497.761 122.5 488.5C115.285 487.374 111.218 487.373 104 488.5L104.5 506C115.191 507.198 119.403 508.474 124.5 514.5Z" fill="#FF0000"/>
<path d="M124.5 514.5C124.22 503.321 124.391 497.761 122.5 488.5C115.285 487.374 111.218 487.373 104 488.5L104.5 506C115.191 507.198 119.403 508.474 124.5 514.5Z" stroke="#FF0000"/>
</g>
<g style="mix-blend-mode:overlay">
<path d="M100 390C98 372.5 99 370.5 99 370.5C104.5 374 123.581 388.389 134 368.5C134 368.5 132 382.5 129.5 393.5C127 404.5 102 407.5 100 390Z" fill="#FF0000"/>
<path d="M100 390C98 372.5 99 370.5 99 370.5C104.5 374 123.581 388.389 134 368.5C134 368.5 132 382.5 129.5 393.5C127 404.5 102 407.5 100 390Z" stroke="#FF0000"/>
</g>
<g style="mix-blend-mode:overlay">
<path d="M193 390C195 372.5 194.5 367 194.5 367C194.5 367 168.5 392 159 369C159 369 161 382.5 163.5 393.5C166 404.5 191 407.5 193 390Z" fill="#FF0000"/>
<path d="M193 390C195 372.5 194.5 367 194.5 367C194.5 367 168.5 392 159 369C159 369 161 382.5 163.5 393.5C166 404.5 191 407.5 193 390Z" stroke="#FF0000"/>
</g>
<g style="mix-blend-mode:overlay">
<path d="M101.999 232L104.499 225C120.5 242.5 172.457 240.761 187.999 225L190.5 232C195 254 154.5 285 147 285C139.5 285 99.4999 245.5 101.999 232Z" fill="#FF0000"/>
<path d="M101.999 232L104.499 225C120.5 242.5 172.457 240.761 187.999 225L190.5 232C195 254 154.5 285 147 285C139.5 285 99.4999 245.5 101.999 232Z" stroke="#FF0000"/>
</g>
<g style="mix-blend-mode:overlay">
<path d="M147 179.5C122.689 187.543 110.833 190.01 103.5 178.5C103.5 178.5 105.253 191.587 105 200C104.823 205.884 103.382 209.114 103.5 215C103.578 218.924 104.5 225 104.5 225C119.325 241.419 171.68 242.462 188 225C188 225 189.854 218.982 190.071 215C190.395 209.066 187.864 205.932 187.5 200C186.983 191.583 189.5 178.5 189.5 178.5C182.235 189.141 170.623 186.825 147 179.5Z" fill="#FF0000"/>
<path d="M147 179.5C122.689 187.543 110.833 190.01 103.5 178.5C103.5 178.5 105.253 191.587 105 200C104.823 205.884 103.382 209.114 103.5 215C103.578 218.924 104.5 225 104.5 225C119.325 241.419 171.68 242.462 188 225C188 225 189.854 218.982 190.071 215C190.395 209.066 187.864 205.932 187.5 200C186.983 191.583 189.5 178.5 189.5 178.5C182.235 189.141 170.623 186.825 147 179.5Z" stroke="#FF0000"/>
</g>
<g style="mix-blend-mode:overlay">
<path d="M165 59C150.946 74.5821 142.714 74.0178 127.5 59C131.264 77.1777 127.456 84.7686 106.5 90C140.72 100.644 157.49 100.728 186 90C164 85 161.907 78.5551 165 59Z" fill="#FF0000"/>
<path d="M165 59C150.946 74.5821 142.714 74.0178 127.5 59C131.264 77.1777 127.456 84.7686 106.5 90C140.72 100.644 157.49 100.728 186 90C164 85 161.907 78.5551 165 59Z" stroke="#FF0000"/>
</g>
<g style="mix-blend-mode:overlay">
<path d="M263.5 247C257.082 249.357 253.238 251.655 247.5 258L240.5 242.5C246 249.5 256.986 246.075 259.5 237L263.5 247Z" fill="#FF0000"/>
<path d="M263.5 247C257.082 249.357 253.238 251.655 247.5 258L240.5 242.5C246 249.5 256.986 246.075 259.5 237L263.5 247Z" stroke="#FF0000"/>
</g>
<g style="mix-blend-mode:overlay">
<path d="M29.5 248.5C35.9182 250.857 38.762 252.655 44.5 259L52 240.5C46.5 247.5 35.6522 245.254 33.5 236.5L29.5 248.5Z" fill="#FF0000"/>
<path d="M29.5 248.5C35.9182 250.857 38.762 252.655 44.5 259L52 240.5C46.5 247.5 35.6522 245.254 33.5 236.5L29.5 248.5Z" stroke="#FF0000"/>
</g>
<g style="mix-blend-mode:overlay">
<path d="M240.5 242.5C246.697 250.241 260.835 243.528 259 234.5C251.699 214.587 250.592 208.549 247 195C233.41 192.167 226.72 194.879 217 207C217 210.5 234.303 234.759 240.5 242.5Z" fill="#FF0000"/>
<path d="M240.5 242.5C246.697 250.241 260.835 243.528 259 234.5C251.699 214.587 250.592 208.549 247 195C233.41 192.167 226.72 194.879 217 207C217 210.5 234.303 234.759 240.5 242.5Z" stroke="#FF0000"/>
</g>
<g style="mix-blend-mode:overlay">
<path d="M50.3256 242.37C43.3256 248.871 32.5 242.5 33.5 236.5C39.8113 220.126 41.2075 209.913 45.5 193.5C59.1535 191.839 66.2187 194.772 75.5 206C75.5 209.5 57.3256 235.87 50.3256 242.37Z" fill="#FF0000"/>
<path d="M50.3256 242.37C43.3256 248.871 32.5 242.5 33.5 236.5C39.8113 220.126 41.2075 209.913 45.5 193.5C59.1535 191.839 66.2187 194.772 75.5 206C75.5 209.5 57.3256 235.87 50.3256 242.37Z" stroke="#FF0000"/>
</g>
<g style="mix-blend-mode:overlay">
<path d="M264.001 248C276.735 252.842 282.828 256.715 292.001 265.5C293.096 269.441 291.842 269.966 287.501 269C283.431 266.832 281.126 265.743 277.001 264C281.255 276.848 285.501 298.5 285.501 298.5C285.655 299.688 282.244 304.099 280.001 298.5C277.758 292.901 273.823 277.579 273.001 278.5C273.001 278.5 279.938 302.5 279.501 306C279.063 309.5 276.29 308.509 274.001 306L267.19 283.75C268.736 288.901 272.288 301.35 271.501 304.5C270.501 308.5 268.315 307.842 266.501 304.5L259.001 282C259.001 282 264.125 297.725 262.501 299.5C260.877 301.275 260.008 300.911 258.501 299C250.335 281.095 247.441 272.18 247.5 258.5C253.471 252.617 257.431 250.022 264.001 248Z" fill="#FF0000"/>
<path d="M264.001 248C276.735 252.842 282.828 256.715 292.001 265.5C293.096 269.441 291.842 269.966 287.501 269C283.431 266.832 281.126 265.743 277.001 264C281.255 276.848 285.501 298.5 285.501 298.5C285.655 299.688 282.244 304.099 280.001 298.5C277.758 292.901 273.823 277.579 273.001 278.5C273.001 278.5 279.938 302.5 279.501 306C279.063 309.5 276.29 308.509 274.001 306L267.19 283.75C268.736 288.901 272.288 301.35 271.501 304.5C270.501 308.5 268.315 307.842 266.501 304.5L259.001 282C259.001 282 264.125 297.725 262.501 299.5C260.877 301.275 260.008 300.911 258.501 299C250.335 281.095 247.441 272.18 247.5 258.5C253.471 252.617 257.431 250.022 264.001 248Z" stroke="#FF0000"/>
</g>
<g style="mix-blend-mode:overlay">
<path d="M29.374 248C16.6395 252.842 10.5467 256.715 1.37402 265.5C0.278683 269.441 1.53342 269.966 5.87402 269C9.94399 266.832 12.2486 265.743 16.374 264C12.1197 276.848 7.87402 298.5 7.87402 298.5C7.72017 299.688 11.1308 304.099 13.374 298.5C15.6173 292.901 19.5516 277.579 20.374 278.5C20.374 278.5 13.4365 302.5 13.874 306C14.3115 309.5 17.0846 308.509 19.374 306L26.1854 283.75C24.6392 288.901 21.0866 301.35 21.874 304.5C22.874 308.5 25.0599 307.842 26.874 304.5L34.374 282C34.374 282 29.2497 297.725 30.874 299.5C32.4984 301.275 33.3668 300.911 34.874 299C43.0396 281.095 45.9999 270 44.9999 259C38.383 252.466 34.9828 250.048 29.374 248Z" fill="#FF0000"/>
<path d="M29.374 248C16.6395 252.842 10.5467 256.715 1.37402 265.5C0.278683 269.441 1.53342 269.966 5.87402 269C9.94399 266.832 12.2486 265.743 16.374 264C12.1197 276.848 7.87402 298.5 7.87402 298.5C7.72017 299.688 11.1308 304.099 13.374 298.5C15.6173 292.901 19.5516 277.579 20.374 278.5C20.374 278.5 13.4365 302.5 13.874 306C14.3115 309.5 17.0846 308.509 19.374 306L26.1854 283.75C24.6392 288.901 21.0866 301.35 21.874 304.5C22.874 308.5 25.0599 307.842 26.874 304.5L34.374 282C34.374 282 29.2497 297.725 30.874 299.5C32.4984 301.275 33.3668 300.911 34.874 299C43.0396 281.095 45.9999 270 44.9999 259C38.383 252.466 34.9828 250.048 29.374 248Z" stroke="#FF0000"/>
</g>
<g style="mix-blend-mode:overlay">
<path d="M70.0965 138C69.0676 106.007 75.9511 94.6186 106.096 90L114.096 92.5C99.6146 97.2132 95.6652 102.769 94.0964 116.5C83.989 120.835 78.8457 126.153 70.0965 138Z" fill="#FF0000"/>
<path d="M70.0965 138C69.0676 106.007 75.9511 94.6186 106.096 90L114.096 92.5C99.6146 97.2132 95.6652 102.769 94.0964 116.5C83.989 120.835 78.8457 126.153 70.0965 138Z" stroke="#FF0000"/>
</g>
<g style="mix-blend-mode:overlay">
<path d="M222 136C223.029 104.007 216.043 94.8596 185.898 90.241L179 93C193.482 97.7132 196.931 102.769 198.5 116.5C208.608 120.835 213.251 124.153 222 136Z" fill="#FF0000"/>
<path d="M222 136C223.029 104.007 216.043 94.8596 185.898 90.241L179 93C193.482 97.7132 196.931 102.769 198.5 116.5C208.608 120.835 213.251 124.153 222 136Z" stroke="#FF0000"/>
</g>
<g style="mix-blend-mode:overlay">
<path d="M94 116C95.1638 102.758 99.2556 97.3968 113.5 92C139.723 99.0674 154.191 99.3041 179.5 92.5C192.915 96.5475 197.503 101.909 199 116C198.145 115.47 199.115 140.369 197 157C195.893 165.706 196.414 167.593 190 178C183.586 188.407 171.504 187.745 149.5 180C147.81 179.435 146.668 179.362 144 180C125 185.5 112.314 191.919 103 178C103 178 96.6231 165.774 95.0001 157C92.0547 141.078 94.4404 115.832 94 116Z" fill="#FF0000"/>
<path d="M94 116C95.1638 102.758 99.2556 97.3968 113.5 92C139.723 99.0674 154.191 99.3041 179.5 92.5C192.915 96.5475 197.503 101.909 199 116C198.145 115.47 199.115 140.369 197 157C195.893 165.706 196.414 167.593 190 178C183.586 188.407 171.504 187.745 149.5 180C147.81 179.435 146.668 179.362 144 180C125 185.5 112.314 191.919 103 178C103 178 96.6231 165.774 95.0001 157C92.0547 141.078 94.4404 115.832 94 116Z" stroke="#FF0000"/>
</g>
<g style="mix-blend-mode:overlay">
<path d="M92.4999 355C81 345 97.6966 254.723 102 234.5C102 244.5 124.265 270.576 144.5 284.5C142.374 285.804 142.12 289.455 142 297C141.604 322.68 140.13 337.351 135.5 364C134.564 369.777 129 376.5 123.5 378.5C118 380.5 102 374.5 99 370C96 365.5 92.4999 355 92.4999 355Z" fill="#FF0000"/>
<path d="M92.4999 355C81 345 97.6966 254.723 102 234.5C102 244.5 124.265 270.576 144.5 284.5C142.374 285.804 142.12 289.455 142 297C141.604 322.68 140.13 337.351 135.5 364C134.564 369.777 129 376.5 123.5 378.5C118 380.5 102 374.5 99 370C96 365.5 92.4999 355 92.4999 355Z" stroke="#FF0000"/>
</g>
<g style="mix-blend-mode:overlay">
<path d="M200.5 352C212 342 191 236.5 191 236.5C191.5 252.5 159.803 283.334 147 284.5C149.126 285.804 151 289.5 149.5 297C149.896 322.68 152.37 335.851 157 362.5C157.936 368.277 162.5 376.5 168 378.5C173.5 380.5 187.5 374 191.5 370C195.5 366 200.5 352 200.5 352Z" fill="#FF0000"/>
<path d="M200.5 352C212 342 191 236.5 191 236.5C191.5 252.5 159.803 283.334 147 284.5C149.126 285.804 151 289.5 149.5 297C149.896 322.68 152.37 335.851 157 362.5C157.936 368.277 162.5 376.5 168 378.5C173.5 380.5 187.5 374 191.5 370C195.5 366 200.5 352 200.5 352Z" stroke="#FF0000"/>
</g>
<g style="mix-blend-mode:overlay">
<path d="M161.5 439.5C157.794 432.5 164 395.5 164 395.5C171.5 405 185.329 404.367 191.5 395.5C195.819 408.466 194.163 433.721 189 488.5C181.906 487.278 177.852 487.33 170.5 488.5C167.983 461.794 165.206 446.5 161.5 439.5Z" fill="#FF0000"/>
<path d="M161.5 439.5C157.794 432.5 164 395.5 164 395.5C171.5 405 185.329 404.367 191.5 395.5C195.819 408.466 194.163 433.721 189 488.5C181.906 487.278 177.852 487.33 170.5 488.5C167.983 461.794 165.206 446.5 161.5 439.5Z" stroke="#FF0000"/>
</g>
<g style="mix-blend-mode:overlay">
<path d="M131 438C134.706 431 128.973 395.5 128.973 395.5C120.702 406.134 105.859 404.061 100.5 394C96.181 406.966 98.8107 433.721 103.973 488.5C111.068 487.278 115.122 487.33 122.473 488.5C124.99 461.794 127.294 445 131 438Z" fill="#FF0000"/>
<path d="M131 438C134.706 431 128.973 395.5 128.973 395.5C120.702 406.134 105.859 404.061 100.5 394C96.181 406.966 98.8107 433.721 103.973 488.5C111.068 487.278 115.122 487.33 122.473 488.5C124.99 461.794 127.294 445 131 438Z" stroke="#FF0000"/>
</g>
<g style="mix-blend-mode:overlay">
<path d="M175 525C168.489 522.604 168 515 168 515C172 509.5 179.722 506.613 188.5 506C194 523 207.916 531.827 206.5 541.5C206.613 542.36 206.132 544.274 204.5 545H202.5C201.965 546.502 201.213 547.059 199 547.5C197.296 548.981 196.307 549.599 194.5 549C188.196 552.887 185.68 550.543 181.5 545C177.858 542.834 176.903 535.139 175 525Z" fill="#FF0000"/>
<path d="M175 525C168.489 522.604 168 515 168 515C172 509.5 179.722 506.613 188.5 506C194 523 207.916 531.827 206.5 541.5C206.613 542.36 206.132 544.274 204.5 545H202.5C201.965 546.502 201.213 547.059 199 547.5C197.296 548.981 196.307 549.599 194.5 549C188.196 552.887 185.68 550.543 181.5 545C177.858 542.834 176.903 535.139 175 525Z" stroke="#FF0000"/>
</g>
<g style="mix-blend-mode:overlay">
<path d="M117.601 525C124.111 522.604 124.601 515 124.601 515C120.601 509.5 112.878 506.613 104.101 506C100.555 522.199 86.0471 531.268 86.1006 541.5C85.9879 542.36 86.4687 542.774 88.1006 543.5L90.1006 545C90.6358 546.502 91.3875 547.059 93.6006 547.5C95.3043 548.981 97.1933 549.599 99 549C105.304 552.887 107.82 550.543 112 545C115.642 542.834 115.698 535.139 117.601 525Z" fill="#FF0000"/>
<path d="M117.601 525C124.111 522.604 124.601 515 124.601 515C120.601 509.5 112.878 506.613 104.101 506C100.555 522.199 86.0471 531.268 86.1006 541.5C85.9879 542.36 86.4687 542.774 88.1006 543.5L90.1006 545C90.6358 546.502 91.3875 547.059 93.6006 547.5C95.3043 548.981 97.1933 549.599 99 549C105.304 552.887 107.82 550.543 112 545C115.642 542.834 115.698 535.139 117.601 525Z" stroke="#FF0000"/>
</g>
<g style="mix-blend-mode:overlay">
<path d="M197.5 156.5L199 116C208.899 120.05 214.065 125.502 223 137.5C228.833 148.877 231.814 155.413 234.5 168.5C226.461 178.55 221.121 181.475 210 181.5L197.5 156.5Z" fill="#FF0000"/>
<path d="M197.5 156.5L199 116C208.899 120.05 214.065 125.502 223 137.5C228.833 148.877 231.814 155.413 234.5 168.5C226.461 178.55 221.121 181.475 210 181.5L197.5 156.5Z" stroke="#FF0000"/>
</g>
<g style="mix-blend-mode:overlay">
<path d="M82.5 181.5L95 156.5C92.7084 144.778 93.5791 133.786 94 116.5C84.5834 120.061 79.3873 124.68 70 137.5C64.1673 148.877 60.6862 155.413 58 168.5C66.0389 178.55 71.379 181.475 82.5 181.5Z" fill="#FF0000"/>
<path d="M82.5 181.5L95 156.5C92.7084 144.778 93.5791 133.786 94 116.5C84.5834 120.061 79.3873 124.68 70 137.5C64.1673 148.877 60.6862 155.413 58 168.5C66.0389 178.55 71.379 181.475 82.5 181.5Z" stroke="#FF0000"/>
</g>
<g style="mix-blend-mode:overlay">
<path d="M125.5 15C122 22 121.5 51.5 127.5 59C133.5 66.5 143 70.5 146 70.5C149 70.5 160.5 67 165 59C169.5 51 171 23.5 167 15C163 6.5 155.071 0.976001 147 1.00003C137.843 0.77853 129 8.00005 125.5 15Z" fill="#FF0000"/>
<path d="M125.5 15C122 22 121.5 51.5 127.5 59C133.5 66.5 143 70.5 146 70.5C149 70.5 160.5 67 165 59C169.5 51 171 23.5 167 15C163 6.5 155.071 0.976001 147 1.00003C137.843 0.77853 129 8.00005 125.5 15Z" stroke="#FF0000"/>
</g>
<g style="mix-blend-mode:overlay">
<path d="M173 38C171.528 35.8103 170.639 36.3711 169 39C168.627 43.6291 168.336 46.3177 167.5 51.5C167.5 51.5 168.5 56 171 51.5C173.826 43.8648 174.235 40.9096 173 38Z" fill="#FF0000"/>
<path d="M173 38C171.528 35.8103 170.639 36.3711 169 39C168.627 43.6291 168.336 46.3177 167.5 51.5C167.5 51.5 168.5 56 171 51.5C173.826 43.8648 174.235 40.9096 173 38Z" stroke="#FF0000"/>
</g>
<g style="mix-blend-mode:overlay">
<path d="M119 38.5C120.472 36.3103 121.361 35.3711 123 38C123.1 44.3157 123.441 47.667 125 53C123.484 53.7391 123.5 53.5 121.5 51.5C120.5 49 117.765 41.4096 119 38.5Z" fill="#FF0000"/>
<path d="M119 38.5C120.472 36.3103 121.361 35.3711 123 38C123.1 44.3157 123.441 47.667 125 53C123.484 53.7391 123.5 53.5 121.5 51.5C120.5 49 117.765 41.4096 119 38.5Z" stroke="#FF0000"/>
</g>
</svg>
